<svg xmlns="http://www.w3.org/2000/svg" viewBox="0 0 512 512" width="512" height="512">
  <rect width="512" height="512" fill="#ffffff"/>
  <!-- Shell, rear rim, and front brim give the small icon a recognisable helmet silhouette. -->
  <path d="M117 302c0-92 57-160 139-160s139 68 139 160v24H117v-24Z" fill="#ffcc24" stroke="#183b67" stroke-width="16" stroke-linejoin="round"/>
  <path d="M156 301v-34c0-58 38-105 100-105s100 47 100 105v34" fill="none" stroke="#e6a900" stroke-width="15" stroke-linecap="round"/>
  <path d="M256 125v123" fill="none" stroke="#183b67" stroke-width="23" stroke-linecap="round"/>
  <path d="M256 125v123" fill="none" stroke="#ffe675" stroke-width="10" stroke-linecap="round"/>
  <path d="M92 306c27-18 77-29 164-29s137 11 164 29v45c-32 24-89 37-164 37S124 375 92 351v-45Z" fill="#ffdc43" stroke="#183b67" stroke-width="16" stroke-linejoin="round"/>
  <path d="M115 326c37 12 84 18 141 18s104-6 141-18" fill="none" stroke="#e6a900" stroke-width="12" stroke-linecap="round"/>
  <!-- Green medical/safety mark, centred where it remains visible at home-screen size. -->
  <circle cx="256" cy="252" r="34" fill="#ffffff" stroke="#183b67" stroke-width="9"/>
  <path d="M246 228h20v14h14v20h-14v14h-20v-14h-14v-20h14v-14Z" fill="#07875a"/>
</svg>
